# xmcd CD database file
#
# Track frame offsets:
#	150
#	8445
#	18690
#	36752
#	51827
#	63210
#	74757
#	83102
#	98875
#	114417
#	133935
#	150205
#	169587
#	184950
#
# Disc length: 2548 seconds
#
# Revision: 2
# Processed by: cddbd v1.5.1PL2 Copyright (c) Steve Scherf et al.
# Submitted via: CDex 1.50beta9
#
DISCID=b209f20e
DTITLE=Various Artist - Saddle Up! The Cowboy Renaisance
DYEAR=1996
DGENRE=Country
TTITLE0=The Reinsmen - Saddle Up
TTITLE1=Riders In The Sky - That's How the Yodel Was Born
TTITLE2=Willie Nelson - Red Headed Stranger
TTITLE3=Bob Nolan - Wandering
TTITLE4=Rex Allen, Jr. - Can You Hear Those Pioneers?
TTITLE5=Don Edwards - Down by the Brazos
TTITLE6=The Reinsmen - Song of the Trail
TTITLE7=Riders In The Sky - The Line  Rider
TTITLE8=Gary McMahan - The First Cowboy Song
TTITLE9=The Sons Of The San Joaquin - Silver Spurs
TTITLE10=Michael Martin Murphey - Cowboy Logic
TTITLE11=Ian Tyson - The Gift
TTITLE12=Sean Blackburn and Liz Masterson - My Prarie Home
TTITLE13=Riders In The Sky - So Long Saddle Pals
EXTD=YEAR: 1996
EXTT0=The Reinsmen
EXTT1=Riders in the Sky
EXTT2=Willie Nelson
EXTT3=Bob Nolan
EXTT4=Rex Allen,Jr.
EXTT5=Don Edwards
EXTT6=The Reinsmen
EXTT7=Riders in the Sky
EXTT8=Gary McMahan
EXTT9=The Sons of the San Joaquin
EXTT10=Michael Martin Murphy
EXTT11=Ian Tyson
EXTT12=Liz Masterson and Sean Blackburn
EXTT13=Riders in the Sky
PLAYORDER=
